<mxfile host="app.diagrams.net" modified="2024-07-08T18:52:31.397Z" agent="Mozilla/5.0 (Macintosh; Intel Mac OS X 10_15_7) AppleWebKit/537.36 (KHTML, like Gecko) Chrome/125.0.0.0 Safari/537.36" etag="VDHIAvg6cG8YnKcuSiLA" version="21.6.9" type="device">
  <diagram name="Page-1" id="f-sBaS7kKL6H8T4tUrvl">
    <mxGraphModel dx="748" dy="416" grid="1" gridSize="10" guides="1" tooltips="1" connect="1" arrows="1" fold="1" page="1" pageScale="1" pageWidth="850" pageHeight="1100" math="0" shadow="0">
      <root>
        <mxCell id="0" />
        <mxCell id="1" parent="0" />
        <mxCell id="qSp2voCxcjBClg3Vv-4l-1" value="&lt;font data-font-src=&quot;https://fonts.googleapis.com/css?family=Montserrat&quot; face=&quot;Montserrat&quot; style=&quot;font-size: 18px;&quot;&gt;RubyMine&lt;/font&gt;" style="html=1;dropTarget=0;whiteSpace=wrap;" parent="1" vertex="1">
          <mxGeometry x="530" y="230" width="180" height="90" as="geometry" />
        </mxCell>
        <mxCell id="qSp2voCxcjBClg3Vv-4l-2" value="" style="shape=module;jettyWidth=8;jettyHeight=4;" parent="qSp2voCxcjBClg3Vv-4l-1" vertex="1">
          <mxGeometry x="1" width="20" height="20" relative="1" as="geometry">
            <mxPoint x="-27" y="7" as="offset" />
          </mxGeometry>
        </mxCell>
        <mxCell id="qSp2voCxcjBClg3Vv-4l-3" value="&lt;font data-font-src=&quot;https://fonts.googleapis.com/css?family=Montserrat&quot; face=&quot;Montserrat&quot; style=&quot;font-size: 18px;&quot;&gt;ruby-debug-ide&lt;br&gt;2.3.X&lt;br&gt;&lt;/font&gt;" style="html=1;dropTarget=0;whiteSpace=wrap;" parent="1" vertex="1">
          <mxGeometry x="290" y="160" width="180" height="90" as="geometry" />
        </mxCell>
        <mxCell id="qSp2voCxcjBClg3Vv-4l-4" value="" style="shape=module;jettyWidth=8;jettyHeight=4;" parent="qSp2voCxcjBClg3Vv-4l-3" vertex="1">
          <mxGeometry x="1" width="20" height="20" relative="1" as="geometry">
            <mxPoint x="-27" y="7" as="offset" />
          </mxGeometry>
        </mxCell>
        <mxCell id="qSp2voCxcjBClg3Vv-4l-5" value="&lt;font style=&quot;font-size: 18px;&quot; face=&quot;Montserrat&quot; data-font-src=&quot;https://fonts.googleapis.com/css?family=Montserrat&quot;&gt;debase 2.3.X&lt;br&gt;&lt;/font&gt;" style="html=1;dropTarget=0;whiteSpace=wrap;" parent="1" vertex="1">
          <mxGeometry x="80" y="160" width="180" height="90" as="geometry" />
        </mxCell>
        <mxCell id="qSp2voCxcjBClg3Vv-4l-6" value="" style="shape=module;jettyWidth=8;jettyHeight=4;" parent="qSp2voCxcjBClg3Vv-4l-5" vertex="1">
          <mxGeometry x="1" width="20" height="20" relative="1" as="geometry">
            <mxPoint x="-27" y="7" as="offset" />
          </mxGeometry>
        </mxCell>
        <mxCell id="qSp2voCxcjBClg3Vv-4l-7" value="" style="endArrow=block;endFill=1;html=1;edgeStyle=orthogonalEdgeStyle;align=left;verticalAlign=top;rounded=0;entryX=1;entryY=0.5;entryDx=0;entryDy=0;exitX=0;exitY=0.5;exitDx=0;exitDy=0;strokeWidth=3;" parent="1" source="qSp2voCxcjBClg3Vv-4l-3" target="qSp2voCxcjBClg3Vv-4l-5" edge="1">
          <mxGeometry x="-1" relative="1" as="geometry">
            <mxPoint x="350" y="290" as="sourcePoint" />
            <mxPoint x="510" y="290" as="targetPoint" />
          </mxGeometry>
        </mxCell>
        <mxCell id="qSp2voCxcjBClg3Vv-4l-9" value="" style="endArrow=block;endFill=1;html=1;edgeStyle=orthogonalEdgeStyle;align=left;verticalAlign=top;rounded=0;entryX=0.999;entryY=0.541;entryDx=0;entryDy=0;exitX=0;exitY=0.5;exitDx=0;exitDy=0;strokeWidth=3;entryPerimeter=0;" parent="1" source="qSp2voCxcjBClg3Vv-4l-1" target="qSp2voCxcjBClg3Vv-4l-14" edge="1">
          <mxGeometry x="-1" relative="1" as="geometry">
            <mxPoint x="560" y="350" as="sourcePoint" />
            <mxPoint x="470" y="350" as="targetPoint" />
            <mxPoint as="offset" />
          </mxGeometry>
        </mxCell>
        <mxCell id="qSp2voCxcjBClg3Vv-4l-14" value="&lt;font data-font-src=&quot;https://fonts.googleapis.com/css?family=Montserrat&quot; face=&quot;Montserrat&quot;&gt;&lt;b&gt;RubyMine Debugger for Ruby &amp;lt; 3.0&lt;/b&gt;&lt;/font&gt;" style="shape=umlFrame;whiteSpace=wrap;html=1;pointerEvents=0;width=260;height=30;movable=1;resizable=1;rotatable=1;deletable=1;editable=1;locked=0;connectable=1;" parent="1" vertex="1">
          <mxGeometry x="70" y="120" width="410" height="140" as="geometry" />
        </mxCell>
        <mxCell id="6GCJO6Rty_prLgSmpoU1-1" value="&lt;font style=&quot;font-size: 18px;&quot; face=&quot;Montserrat&quot; data-font-src=&quot;https://fonts.googleapis.com/css?family=Montserrat&quot;&gt;debase 3.0.X&lt;br&gt;&lt;/font&gt;" style="html=1;dropTarget=0;whiteSpace=wrap;" vertex="1" parent="1">
          <mxGeometry x="80" y="320" width="180" height="90" as="geometry" />
        </mxCell>
        <mxCell id="6GCJO6Rty_prLgSmpoU1-2" value="" style="shape=module;jettyWidth=8;jettyHeight=4;" vertex="1" parent="6GCJO6Rty_prLgSmpoU1-1">
          <mxGeometry x="1" width="20" height="20" relative="1" as="geometry">
            <mxPoint x="-27" y="7" as="offset" />
          </mxGeometry>
        </mxCell>
        <mxCell id="6GCJO6Rty_prLgSmpoU1-3" value="&lt;font data-font-src=&quot;https://fonts.googleapis.com/css?family=Montserrat&quot; face=&quot;Montserrat&quot; style=&quot;font-size: 18px;&quot;&gt;ruby-debug-ide&lt;br&gt;3.0.X&lt;br&gt;&lt;/font&gt;" style="html=1;dropTarget=0;whiteSpace=wrap;" vertex="1" parent="1">
          <mxGeometry x="290" y="320" width="180" height="90" as="geometry" />
        </mxCell>
        <mxCell id="6GCJO6Rty_prLgSmpoU1-4" value="" style="shape=module;jettyWidth=8;jettyHeight=4;" vertex="1" parent="6GCJO6Rty_prLgSmpoU1-3">
          <mxGeometry x="1" width="20" height="20" relative="1" as="geometry">
            <mxPoint x="-27" y="7" as="offset" />
          </mxGeometry>
        </mxCell>
        <mxCell id="6GCJO6Rty_prLgSmpoU1-7" value="" style="endArrow=block;endFill=1;html=1;edgeStyle=orthogonalEdgeStyle;align=left;verticalAlign=top;rounded=0;entryX=1;entryY=0.5;entryDx=0;entryDy=0;exitX=0;exitY=0.5;exitDx=0;exitDy=0;strokeWidth=3;" edge="1" parent="1" source="6GCJO6Rty_prLgSmpoU1-3" target="6GCJO6Rty_prLgSmpoU1-1">
          <mxGeometry x="-1" relative="1" as="geometry">
            <mxPoint x="300" y="235" as="sourcePoint" />
            <mxPoint x="270" y="235" as="targetPoint" />
          </mxGeometry>
        </mxCell>
        <mxCell id="6GCJO6Rty_prLgSmpoU1-8" value="&lt;font data-font-src=&quot;https://fonts.googleapis.com/css?family=Montserrat&quot; face=&quot;Montserrat&quot;&gt;&lt;b&gt;RubyMine Debugger for Ruby &amp;gt;= 3.0&lt;/b&gt;&lt;/font&gt;" style="shape=umlFrame;whiteSpace=wrap;html=1;pointerEvents=0;width=260;height=30;movable=1;resizable=1;rotatable=1;deletable=1;editable=1;locked=0;connectable=1;" vertex="1" parent="1">
          <mxGeometry x="70" y="280" width="410" height="140" as="geometry" />
        </mxCell>
        <mxCell id="6GCJO6Rty_prLgSmpoU1-9" value="" style="endArrow=block;endFill=1;html=1;edgeStyle=orthogonalEdgeStyle;align=left;verticalAlign=top;rounded=0;entryX=0.999;entryY=0.509;entryDx=0;entryDy=0;exitX=0;exitY=0.5;exitDx=0;exitDy=0;strokeWidth=3;entryPerimeter=0;" edge="1" parent="1" source="qSp2voCxcjBClg3Vv-4l-1" target="6GCJO6Rty_prLgSmpoU1-8">
          <mxGeometry x="-1" relative="1" as="geometry">
            <mxPoint x="610" y="255" as="sourcePoint" />
            <mxPoint x="500" y="217" as="targetPoint" />
            <mxPoint as="offset" />
          </mxGeometry>
        </mxCell>
      </root>
    </mxGraphModel>
  </diagram>
</mxfile>
